<?xml version="1.0" encoding="UTF-8"?>
<!DOCTYPE svg PUBLIC "-//W3C//DTD SVG 1.1//EN" "http://www.w3.org/Graphics/SVG/1.1/DTD/svg11.dtd">
<!-- Creator: CorelDRAW -->
<svg xmlns="http://www.w3.org/2000/svg" xml:space="preserve" width="38.9467mm" height="15.6642mm" version="1.1" style="shape-rendering:geometricPrecision; text-rendering:geometricPrecision; image-rendering:optimizeQuality; fill-rule:evenodd; clip-rule:evenodd"
viewBox="0 0 713.41 286.93"
 xmlns:xlink="http://www.w3.org/1999/xlink"
 xmlns:xodm="http://www.corel.com/coreldraw/odm/2003">
 <defs>
  <style type="text/css">
   <![CDATA[
    .fil0 {fill:white}
   ]]>
  </style>
 </defs>
 <g id="Layer_x0020_1">
  <metadata id="CorelCorpID_0Corel-Layer"/>
  <g id="_1387427607504">
   <path class="fil0" d="M312.31 92.26c-0.81,-1 -1.68,-1.97 -2.62,-2.9 -7.02,-7.02 -15.59,-10.53 -25.7,-10.53 -11.75,0 -21.38,3.51 -28.89,10.53 -7.51,7.02 -11.26,15.91 -11.26,26.68l0 163.05 -83.73 0 0 -163.05c0,-10.77 -3.51,-19.67 -10.53,-26.68 -7.02,-7.02 -15.91,-10.53 -26.68,-10.53 -11.42,0 -20.81,3.43 -28.15,10.28 -7.35,6.86 -11.02,15.83 -11.02,26.93l0 163.05 -83.73 0 0 -271.75 83.73 0 0 20.57c8.49,-8.81 18.44,-15.67 29.87,-20.57 11.42,-4.9 23.67,-7.34 36.72,-7.34 13.06,0 25.46,2.86 37.21,8.57 11.75,5.71 21.87,13.95 30.36,24.73 9.79,-10.45 21.95,-18.61 36.48,-24.48 14.53,-5.88 29.62,-8.81 45.29,-8.81 14.1,0 27.1,2.3 38.98,6.89 -13.81,4.78 -25.15,14.37 -31.45,28.59 -6.82,15.41 -6.34,33.9 1.19,48.96 1.31,2.61 2.62,5.21 3.92,7.82z"/>
   <path class="fil0" d="M632.62 257.06c-18.93,19.91 -45.05,29.87 -78.34,29.87 -24.48,0 -46.76,-6.2 -66.83,-18.61 -18.18,-11.23 -32.82,-26.35 -43.9,-45.35 8.86,5.6 19.18,8.63 29.86,8.63 25.54,0 47.08,-17.14 53.76,-40.53 11.34,10.04 24.95,15.06 40.83,15.06 17.3,0 31.91,-5.96 43.82,-17.87 11.92,-11.91 17.87,-26.85 17.87,-44.8 0,-0.88 -0.01,-1.76 -0.04,-2.63 6.58,1.51 13.42,1.84 20.15,0.94 30.89,-4.12 52.61,-32.55 48.48,-63.44 -1.81,-13.54 -8.41,-25.88 -18.64,-34.89 -10.18,-10.1 -30.86,-16.4 -47.02,-19.87l0 -16.24 80.79 0 0 271.75 -80.79 0 0 -22.03z"/>
   <path class="fil0" d="M362.34 163.76c5.55,20.09 23.68,52.48 29.6,72.89 5.92,20.41 -6.83,47.9 -37.14,50.14 -30.32,2.24 -47.15,-23.7 -43.46,-49.8 3.69,-26.1 25.71,-43.82 33.37,-78.37 7.67,-34.55 -9.37,-63.74 -18.95,-82.87 -9.58,-19.13 -2.5,-49.7 29.8,-52.75 32.31,-3.04 39.04,26.35 50.06,54.76 5.87,15.1 9.22,19.11 14.3,25.03 4.47,5.2 9.7,12.44 26.99,22.19 25,14.1 62.96,16.17 62.96,50.73 0,20.14 -16.33,36.47 -36.48,36.47 -10.11,0 -19.26,-4.12 -25.87,-10.76 -13.13,-13.21 -9.68,-32.02 -13.85,-48.73 -6.95,-27.88 -24.64,-60.91 -48.8,-62.16 -21.99,-1.14 -31.23,41.78 -22.55,73.22z"/>
   <path class="fil0" d="M549.99 6.35c7.8,-1.04 15.16,2.45 19.43,8.44l0.02 0.03 0.01 0.01 0.01 0.01c0.23,0.33 0.46,0.67 0.67,1.01 2.91,4.08 15.71,19.21 48.42,24.53 37.95,6.17 47.95,16.99 47.95,16.99l0 0c6.79,5.77 11.55,13.97 12.82,23.5 2.73,20.45 -11.63,39.23 -32.07,41.96 -6.92,0.93 -13.66,-0.11 -19.64,-2.68l-0 0c0,0 -9.78,-2.26 -16.89,-14.41 -2.29,-3.63 -3.98,-7.7 -4.92,-12.09l-0.01 -0.02c-6.06,-22.88 -15.37,-33.37 -28.23,-41.91 -12.86,-8.54 -22.27,-3.44 -32.54,0.71 -6.34,2.95 -12.75,7.36 -18.62,16.75 -7.08,11.33 -13.75,22.89 -17.56,29.61 -4.37,10.18 -13.75,17.45 -24.94,18.94 -17.34,2.32 -33.28,-9.87 -35.6,-27.21 -1.53,-11.45 3.26,-22.28 11.68,-28.99l0.03 -0.03c0,0 7.63,-8.5 35.58,-14.16 20.51,-4.16 32.89,-20.04 38.03,-28.2 2.74,-6.9 8.96,-11.8 16.36,-12.78z"/>
  </g>
 </g>
</svg>
