<?xml version="1.0" encoding="UTF-8"?>
<!DOCTYPE svg PUBLIC "-//W3C//DTD SVG 1.1//EN" "http://www.w3.org/Graphics/SVG/1.1/DTD/svg11.dtd">
<!-- Creator: CorelDRAW -->
<svg xmlns="http://www.w3.org/2000/svg" xml:space="preserve" width="89.0429mm" height="24.1078mm" version="1.1" style="shape-rendering:geometricPrecision; text-rendering:geometricPrecision; image-rendering:optimizeQuality; fill-rule:evenodd; clip-rule:evenodd"
viewBox="0 0 8904.28 2410.78"
 xmlns:xlink="http://www.w3.org/1999/xlink"
 xmlns:xodm="http://www.corel.com/coreldraw/odm/2003">
 <defs>
  <style type="text/css">
   <![CDATA[
    .fil0 {fill:#FEFEFE}
    .fil1 {fill:#FEFEFE;fill-rule:nonzero}
   ]]>
  </style>
 </defs>
 <g id="Layer_x0020_1">
  <metadata id="CorelCorpID_0Corel-Layer"/>
  <g id="_1387425591232">
   <path class="fil0" d="M2053.04 1131.1c-5.32,-6.58 -11.05,-12.94 -17.19,-19.08 -46.13,-46.14 -102.46,-69.21 -168.98,-69.21 -77.26,0 -140.56,23.07 -189.9,69.21 -49.36,46.13 -74.04,104.6 -74.04,175.41l0 1071.85 -550.4 0 0 -1071.85c0,-70.81 -23.07,-129.28 -69.21,-175.41 -46.14,-46.14 -104.61,-69.21 -175.42,-69.21 -75.1,0 -136.8,22.53 -185.07,67.59 -48.28,45.07 -72.43,104.07 -72.43,177.03l0 1071.85 -550.4 0 0 -1786.41 550.4 0 0 135.19c55.8,-57.93 121.24,-103 196.35,-135.19 75.1,-32.18 155.57,-48.27 241.4,-48.27 85.84,0 167.37,18.77 244.62,56.33 77.25,37.55 143.78,91.72 199.57,162.54 64.37,-68.66 144.3,-122.32 239.8,-160.94 95.48,-38.63 194.73,-57.93 297.73,-57.93 92.71,0 178.11,15.1 256.24,45.32 -90.81,31.44 -165.34,94.48 -206.71,187.93 -44.83,101.28 -41.69,222.86 7.85,321.86 8.6,17.18 17.25,34.29 25.79,51.39z"/>
   <path class="fil0" d="M4158.61 2214.44c-124.46,130.89 -296.13,196.34 -515,196.34 -160.94,0 -307.39,-40.77 -439.36,-122.32 -119.51,-73.85 -215.72,-173.21 -288.59,-298.09 58.23,36.84 126.07,56.76 196.26,56.76 167.87,0 309.48,-112.65 353.39,-266.44 74.57,65.98 164.03,98.99 268.42,98.99 113.73,0 209.76,-39.16 288.08,-117.48 78.33,-78.32 117.48,-176.49 117.48,-294.52 0,-5.81 -0.09,-11.57 -0.28,-17.28 43.28,9.95 88.24,12.11 132.49,6.2 203.04,-27.1 345.85,-214 318.73,-417.02 -11.88,-89 -55.28,-170.12 -122.52,-229.34 -66.95,-66.38 -202.89,-107.82 -309.1,-130.6l0 -106.77 531.09 0 0 1786.41 -531.09 0 0 -144.84z"/>
   <path class="fil1" d="M4918.22 572.94l543.95 0 0 199.56c98.7,-165.23 237.09,-247.82 415.2,-247.82 45.07,0 93.34,6.4 144.82,19.27l0 527.86 -173.81 0c-118.02,0 -210.27,32.74 -276.8,98.19 -66.5,65.45 -99.75,163.6 -99.75,294.5l0 894.78 -553.61 0 0 -1786.34z"/>
   <path class="fil1" d="M6316.49 572.94l550.4 0 0 1786.34 -550.4 0 0 -1786.34zm-3.22 -572.94l550.39 0 0 415.23 -550.39 0 0 -415.23z"/>
   <path class="fil1" d="M7964.46 2410.76c-173.81,0 -333.14,-41.82 -477.96,-125.5 -144.87,-83.68 -259.66,-197.43 -344.39,-341.17 -84.77,-143.78 -127.14,-302.57 -127.14,-476.37 0,-173.81 41.82,-332.59 125.51,-476.37 83.68,-143.74 198.47,-257.49 344.38,-341.17 145.92,-83.68 305.79,-125.5 479.6,-125.5 171.67,0 329.37,41.82 473.15,125.5 143.73,83.68 257.48,197.43 341.16,341.17 83.69,143.78 125.51,302.56 125.51,476.37 0,173.8 -41.82,332.59 -125.51,476.37 -83.68,143.74 -197.43,257.49 -341.16,341.17 -143.78,83.68 -301.48,125.5 -473.15,125.5zm0 -534.29c109.44,0 202.24,-39.15 278.39,-117.48 76.2,-78.32 114.29,-175.39 114.29,-291.27 0,-115.88 -38.09,-212.95 -114.29,-291.28 -76.15,-78.32 -170.04,-117.47 -281.62,-117.47 -111.57,0 -205.46,39.15 -281.61,117.47 -76.19,78.33 -114.29,175.4 -114.29,291.28 0,115.88 38.1,212.95 114.29,291.27 76.15,78.33 171.12,117.48 284.84,117.48z"/>
   <path class="fil0" d="M2381.88 1601.11c36.46,132.09 155.68,344.98 194.6,479.16 38.92,134.2 -44.86,314.89 -244.18,329.61 -199.31,14.7 -309.91,-155.79 -285.68,-327.35 24.25,-171.55 169.02,-288.04 219.4,-515.17 50.39,-227.14 -61.63,-418.99 -124.57,-544.79 -62.95,-125.79 -16.45,-326.7 195.92,-346.73 212.39,-20.02 256.61,173.24 329.08,359.97 38.56,99.3 60.65,125.66 94.01,164.52 29.36,34.19 63.77,81.8 177.39,145.85 164.37,92.68 413.84,106.3 413.84,333.48 0,132.42 -107.35,239.78 -239.77,239.78 -66.46,0 -126.61,-27.06 -170.04,-70.74 -86.28,-86.8 -63.63,-210.48 -91.02,-320.33 -45.69,-183.25 -162.02,-400.4 -320.77,-408.6 -144.58,-7.46 -205.27,274.63 -148.21,481.34z"/>
   <path class="fil0" d="M3615.45 566.35c51.29,-6.85 99.68,16.1 127.75,55.5l0.12 0.16 0.05 0.06 0.03 0.06c1.55,2.19 3.02,4.4 4.44,6.68 19.15,26.81 103.3,126.28 318.32,161.24 249.49,40.55 315.24,111.69 315.24,111.69l-0.01 0.01c44.62,37.93 75.91,91.86 84.27,154.46 17.95,134.4 -76.43,257.88 -210.8,275.82 -45.51,6.08 -89.77,-0.73 -129.1,-17.62l-0.01 0c0,0 -64.29,-14.88 -111.06,-94.74 -15.04,-23.84 -26.18,-50.59 -32.34,-79.48l-0.03 -0.1c-39.87,-150.4 -101.03,-219.38 -185.61,-275.53 -84.56,-56.13 -146.42,-22.62 -213.93,4.7 -41.64,19.4 -83.84,48.38 -122.4,110.09 -46.56,74.49 -90.38,150.46 -115.43,194.66 -28.76,66.94 -90.4,114.69 -163.93,124.51 -114.02,15.22 -218.78,-64.86 -234.01,-178.88 -10.05,-75.25 21.43,-146.46 76.78,-190.57l0.2 -0.18c0,0 50.15,-55.85 233.92,-93.09 134.85,-27.33 216.22,-131.75 249.99,-185.4 18.03,-45.38 58.89,-77.55 107.55,-84.05z"/>
  </g>
 </g>
</svg>
