<svg width="105" height="24" viewBox="0 0 105 24" fill="none" xmlns="http://www.w3.org/2000/svg">
<g opacity="0.64" clip-path="url(#clip0_2024_356)">
<path d="M102.236 4.59849L104.741 7.12008C104.828 7.18974 104.893 7.28376 104.927 7.39026C104.978 8.0109 104.508 8.04486 104.028 8.07954C103.82 8.09454 103.611 8.10972 103.441 8.1726C102.599 8.40054 101.848 8.88198 101.289 9.55158C100.73 10.2212 100.391 11.0465 100.317 11.9156C100.263 12.016 100.181 12.0986 100.081 12.1535C99.9816 12.2084 99.8682 12.2333 99.7542 12.2252C99.6222 12.2135 99.4986 12.1557 99.405 12.0619L98.583 11.2343C98.589 11.2909 98.589 11.347 98.589 11.3921V11.9381C98.589 11.9726 98.5902 12.0058 98.586 12.039C98.5806 12.0762 98.568 12.1133 98.5386 12.1519V12.2026C98.5386 12.2285 98.5416 12.2525 98.5446 12.277C98.5506 12.3269 98.5572 12.3784 98.5386 12.4503C98.5206 12.5173 98.5188 12.5955 98.5164 12.6653C98.5158 12.7067 98.5146 12.7453 98.5104 12.7767C98.5044 12.8203 98.5044 12.8669 98.5008 12.9134C98.4972 12.9569 98.49 13.0004 98.4708 13.0412C98.4444 13.0984 98.4354 13.1529 98.433 13.2083C98.4312 13.2349 98.4312 13.2616 98.4312 13.2889L98.3976 13.4634L97.1202 19.5535L97.0188 20.0093L96.9792 20.6735L96.4164 23.5497L96.3264 24H50.7749L50.5553 23.7805L50.5159 23.9719H45.6416L42.9287 21.242L43.1876 20.0093H41.6566L40.7054 19.0469C39.5249 19.9065 38.096 20.3571 36.636 20.3302C35.0665 20.392 33.5365 19.8293 32.3809 18.7655L30.9005 17.2739L30.5797 18.7711C30.5404 18.985 30.4897 19.1876 30.4334 19.3846L30.3827 19.5704L30.2983 19.8405C30.2914 19.864 30.2819 19.8866 30.2702 19.9081C30.1864 20.1562 30.0868 20.3987 29.9719 20.6341C29.9749 20.6432 29.9749 20.6531 29.9719 20.6623C29.9571 20.6935 29.9402 20.7235 29.9212 20.7523C29.8362 20.9205 29.7423 21.0839 29.6398 21.242C29.6207 21.2708 29.6038 21.3009 29.5891 21.3321L29.5272 21.3996C29.3896 21.5969 29.2392 21.7849 29.0769 21.9625C29.0324 22.007 28.9879 22.0488 28.9426 22.0898C28.8964 22.1318 28.8495 22.1731 28.8011 22.2157L28.6773 22.3339C28.5992 22.3988 28.5194 22.4614 28.4378 22.5217C28.3706 22.5714 28.3022 22.6195 28.2326 22.666C27.0727 23.3533 25.7346 23.6804 24.3884 23.606C22.531 23.606 21.045 23.0656 20.105 22.1201L17.4596 19.4578C16.403 20.0557 15.2065 20.3626 13.9925 20.3471C12.4277 20.3955 10.9069 19.8252 9.75984 18.7598L8.27958 17.2683L7.80114 19.5704L7.70544 20.0263H2.72422L0 17.2795L0.140713 16.6154L3.13509 2.23451L3.22513 1.78423H8.22324L8.35272 1.90808V1.78423H42.0281L42.152 1.90808V1.78423H47.0263L49.7504 4.53095L49.6154 5.18948L49.469 5.90994H50.8705L51.0901 6.12948C51.7067 5.76806 52.4072 5.57403 53.122 5.56661C53.6476 5.55623 54.1695 5.65607 54.6542 5.85965C55.1389 6.06324 55.5756 6.366 55.9362 6.74856L55.863 6.66414L57.1857 7.99812C57.9906 6.48408 59.7973 5.56661 62.2512 5.56661C64.1538 5.56661 65.5554 6.05064 66.405 6.92868L67.362 7.8912L67.683 6.34332L67.7784 5.89304H72.6582L74.0544 7.29456L74.2512 6.34896L74.3472 5.89867H83.9496L84.2082 6.15762C84.8586 5.77384 85.6032 5.57891 86.3586 5.59475C86.8128 5.57702 87.2652 5.66019 87.684 5.83828C88.1022 6.01638 88.476 6.285 88.7784 6.62478C88.7628 6.60708 88.7478 6.58938 88.7328 6.57198C88.7058 6.5397 88.6788 6.5082 88.65 6.47904L89.139 6.9681C89.565 6.52692 90.0774 6.17754 90.6432 5.94141C91.2096 5.70526 91.818 5.58726 92.4312 5.59475C92.757 5.57472 93.0822 5.60244 93.3978 5.6762L92.865 5.13884C92.7924 5.06117 92.7432 4.96453 92.7234 4.86013C92.7036 4.75573 92.7138 4.64779 92.7522 4.54888C92.7912 4.44994 92.8572 4.36406 92.943 4.30112C93.0288 4.23819 93.1302 4.20077 93.2364 4.19325H93.6642C93.7794 4.18226 93.894 4.16536 94.0074 4.14258C94.6056 4.01684 95.1684 3.75974 95.655 3.38982C96.1422 3.01994 96.5406 2.54651 96.822 2.00375C96.8466 1.96177 96.8688 1.91859 96.8892 1.8743V1.84617C97.083 1.42929 97.2006 0.981486 97.2384 0.52345C97.248 0.381122 97.3122 0.247864 97.4166 0.150712C97.521 0.0535248 97.6584 -0.000341904 97.8012 1.63313e-06H97.8462C97.9314 0.00810912 98.0142 0.0356608 98.0874 0.0805266C98.1606 0.125427 98.2224 0.186439 98.2686 0.258926C98.6736 0.652926 100.925 2.9437 100.925 2.9437C101.113 3.14543 101.099 3.40731 101.084 3.67228C101.075 3.83611 101.066 4.00115 101.105 4.15385C101.207 4.17223 101.311 4.18614 101.414 4.19555C101.514 4.20452 101.614 4.2094 101.713 4.21012C101.83 4.21256 101.943 4.25124 102.037 4.32084C102.13 4.39041 102.2 4.48746 102.236 4.59849Z" fill="black"/>
<path d="M25.7617 6.4503H29.3189L27.3264 15.9005C26.9606 17.6904 26.2626 18.7148 25.2044 19.4409C24.1342 20.062 22.9052 20.3555 21.6698 20.2852C19.3171 20.2852 17.06 19.3002 16.8349 16.9081H20.4146C20.5271 17.4709 21.045 17.7917 21.833 17.7917C22.8968 17.7917 23.3864 17.1501 23.606 16.1426L23.8198 15.1013H23.741C23.4269 15.4466 23.0459 15.7244 22.6212 15.9179C22.1964 16.1114 21.7368 16.2166 21.2701 16.227C19.1989 16.227 17.5553 14.5778 17.5891 12.1632C17.6341 9.34896 19.469 6.15198 22.5478 6.15198C23.1313 6.11268 23.7137 6.24126 24.2264 6.52254C24.7391 6.80376 25.1605 7.22598 25.4408 7.73922H25.5028L25.7617 6.4503ZM22.7054 13.5872C24.0731 13.5872 24.833 12.0113 24.8555 10.6548C24.8555 9.74862 24.5009 8.81988 23.454 8.81988C22.0243 8.81988 21.2983 10.4128 21.2758 11.7805C21.2758 12.7036 21.6304 13.5872 22.6772 13.5872M62.64 13.8912C62.64 14.4934 62.1216 14.7355 61.4406 14.7355C60.315 14.7355 59.938 14.1726 59.9324 13.3846H56.3921C56.3302 16.3227 58.9531 17.0488 61.2834 17.0488C64.2606 17.0488 66.1914 15.7598 66.231 13.1876C66.231 11.1332 64.4802 10.5085 62.7582 10.1088C61.4352 9.8049 60.8556 9.58536 60.861 9.08442C60.867 8.58348 61.458 8.38086 62.0376 8.38086C62.7636 8.38086 63.2586 8.63976 63.3096 9.30396H66.7488C66.7092 6.84991 64.497 6.12948 62.2458 6.12948C59.5103 6.12948 57.377 7.37334 57.3433 9.72606C57.3433 11.5778 58.5928 12.2589 60.4782 12.743C61.6884 13.0638 62.6508 13.1651 62.64 13.8912ZM88.9416 7.97562H88.8798C88.7268 7.42134 88.3884 6.93612 87.9216 6.6003C87.4548 6.26454 86.8872 6.0984 86.313 6.12948C84.7824 6.12948 83.8482 6.88932 82.9644 8.03754H82.9026L83.229 6.4503H79.6488L77.5044 16.7054H81.2478L82.3734 11.1726C82.632 9.9681 83.2458 9.12384 84.1746 9.12384C85.1034 9.12384 85.227 9.86676 85.0356 10.773L83.7972 16.7054H87.54L88.6662 11.1726C88.9248 9.88932 89.5386 9.12384 90.4668 9.12384C91.3956 9.12384 91.5198 9.8274 91.3284 10.773L90.09 16.7054H93.8328L95.1726 10.6097C95.7354 8.03754 94.8744 6.10692 92.4036 6.10692C91.716 6.1041 91.0392 6.27366 90.4344 6.60012C89.8296 6.92658 89.3166 7.3995 88.9416 7.97562ZM0.686646 16.7054H4.55344L7.54218 2.32458H3.68102L0.686646 16.7054ZM12.3264 6.14634C14.938 6.14634 17.4315 7.57596 17.3921 10.8124C17.3583 14.3527 14.9493 17.0038 11.2682 17.0038C8.7354 17.0038 6.20262 15.5966 6.24762 12.3771C6.30954 8.92122 8.68476 6.14634 12.3264 6.14634ZM11.3752 14.4934C13.0244 14.4934 13.6266 12.1013 13.6266 10.6942C13.6266 9.68671 13.3171 8.70168 12.2307 8.70168C10.5985 8.70168 10.0412 11.2345 10.0412 12.5404C10.0412 13.5872 10.3339 14.4934 11.3977 14.4934M8.8311 2.32458L8.26824 5.20076H40.7392L41.302 2.32458H8.8311ZM34.9474 6.14634C37.559 6.14634 40.0525 7.57596 40.0131 10.8124C39.9793 14.3527 37.5647 17.0038 33.8836 17.0038C31.3508 17.0038 28.8179 15.5966 28.8686 12.3771C28.9474 8.92122 31.3226 6.14634 34.9474 6.14634ZM34.0131 14.4934C35.6623 14.4934 36.2645 12.1013 36.2645 10.6942C36.2645 9.68671 35.9493 8.70168 34.863 8.70168C33.2363 8.70168 32.6735 11.2345 32.6735 12.5404C32.6735 13.5872 32.9662 14.4934 34.0356 14.4934M42.6304 2.32458L42.0675 5.20076H45.8048L46.3677 2.32458H42.6304ZM39.636 16.7054H43.3789L45.5234 6.4503H41.7579L39.636 16.7054ZM51.5797 17.0488C50.984 17.0911 50.3882 16.9666 49.8593 16.6892C49.3304 16.4118 48.8892 15.9925 48.5853 15.4784H48.5234L47.3977 20.6679H43.6097L46.6491 6.4503H50.2063L49.9249 7.818C50.2964 7.3128 50.7776 6.89838 51.3323 6.60588C51.887 6.31344 52.5008 6.15054 53.1275 6.12948C55.3789 6.12948 56.7016 8.06004 56.6623 10.5704C56.6116 13.7279 54.9737 17.0488 51.5572 17.0488H51.5797ZM51.4333 9.03378C49.9868 9.03378 49.0975 10.8856 49.075 12.3096C49.075 13.3002 49.424 14.4034 50.6116 14.4034C52.1594 14.4034 52.7954 12.3546 52.8123 10.9868C52.8123 10.0582 52.5422 9.03378 51.4333 9.03378ZM73.0752 15.0901H73.137L72.8106 16.7167H76.3674L78.5124 6.46152H74.775L73.5816 12.1913C73.3398 13.379 72.6078 14.0038 71.685 14.0038C70.7616 14.0038 70.5588 13.1369 70.7448 12.2308L71.955 6.46152H68.2176L66.8946 12.7936C66.3318 15.5516 67.6152 17.0375 69.7656 17.0375C70.4406 17.0309 71.1024 16.8464 71.6832 16.5025C72.264 16.1586 72.7446 15.6675 73.0752 15.0788V15.0901ZM93.1518 20.7186L93.7146 17.8424H49.3283L48.7654 20.7186H93.1518Z" fill="#F4F7F5"/>
<path d="M97.176 9.26457C97.1394 9.26175 97.1034 9.25161 97.0704 9.23475C97.0368 9.21795 97.0074 9.19473 96.9834 9.16647C96.9594 9.13821 96.9414 9.10551 96.93 9.07017C96.9186 9.03483 96.9144 8.99763 96.9174 8.96061C96.9642 8.45937 96.9048 7.95381 96.7428 7.47717C96.5808 7.00053 96.3198 6.56343 95.9766 6.19467C95.634 5.82589 95.217 5.53367 94.7538 5.33717C94.29 5.14068 93.7902 5.04433 93.2868 5.05445C93.2124 5.05445 93.141 5.0248 93.0882 4.97202C93.0354 4.91924 93.0054 4.84766 93.0054 4.77302C93.0054 4.69838 93.0354 4.6268 93.0882 4.57403C93.141 4.52125 93.2124 4.49159 93.2868 4.49159C93.4218 4.50032 93.5574 4.50032 93.6924 4.49159C94.692 4.38509 95.6232 3.93341 96.3258 3.2143C97.029 2.49518 97.4586 1.5536 97.542 0.551633C97.548 0.480963 97.5798 0.415043 97.632 0.367041C97.6842 0.31904 97.7526 0.292499 97.8234 0.292726C97.8606 0.295567 97.8966 0.3057 97.9296 0.322536C97.9626 0.339373 97.992 0.362583 98.016 0.390831C98.0406 0.419081 98.0586 0.451808 98.07 0.487134C98.0814 0.522459 98.0856 0.559681 98.0826 0.596662C98.0358 1.09746 98.0952 1.60251 98.2566 2.07878C98.4186 2.55504 98.679 2.9918 99.021 3.3605C99.3636 3.72919 99.7794 4.02152 100.242 4.21838C100.705 4.41523 101.204 4.51217 101.707 4.50285C101.782 4.50285 101.854 4.53251 101.906 4.58528C101.959 4.63806 101.989 4.70964 101.989 4.78428C101.989 4.85892 101.959 4.93051 101.906 4.98328C101.854 5.03606 101.782 5.0657 101.707 5.0657C100.638 5.08337 99.6126 5.49529 98.8284 6.22245C98.0442 6.94959 97.5558 7.94073 97.458 9.00567C97.452 9.07635 97.4202 9.14229 97.368 9.19029C97.3158 9.23829 97.2474 9.26481 97.176 9.26457Z" fill="#F4F7F5"/>
</g>
<defs>
<clipPath id="clip0_2024_356">
<rect width="105" height="24" fill="white"/>
</clipPath>
</defs>
</svg>
