<svg width="112" height="24" viewBox="0 0 112 24" fill="none" xmlns="http://www.w3.org/2000/svg">
<g opacity="0.64">
<path d="M17.9352 10.6968C17.632 11.0019 17.3998 11.37 17.2552 11.775C17.1105 12.18 17.057 12.612 17.0984 13.04L17.084 13.0256C17.1265 13.5296 17.0585 14.0366 16.8848 14.5116C16.7112 14.9864 16.436 15.4177 16.0784 15.7753C15.7208 16.1328 15.2896 16.4081 14.8146 16.5817C14.3397 16.7554 13.8326 16.8234 13.3288 16.7808L13.3432 16.7952C12.7404 16.7392 12.1351 16.8703 11.6096 17.1708C11.0841 17.4714 10.6641 17.9267 10.4069 18.4747C10.1497 19.0227 10.0677 19.6366 10.1722 20.2329C10.2768 20.8292 10.5626 21.3787 10.9908 21.8065C11.4191 22.2344 11.9688 22.5197 12.5652 22.6236C13.1616 22.7276 13.7754 22.6451 14.3232 22.3874C14.8709 22.1296 15.3258 21.7093 15.6259 21.1836C15.926 20.6578 16.0566 20.0524 16 19.4496L16.0152 19.464C15.9726 18.9602 16.0405 18.4531 16.2142 17.9781C16.3879 17.5032 16.6632 17.072 17.0207 16.7144C17.3783 16.3568 17.8096 16.0816 18.2844 15.908C18.7594 15.7343 19.2664 15.6663 19.7704 15.7088L19.7552 15.6944C20.2475 15.7387 20.7431 15.658 21.196 15.4597C21.6488 15.2615 22.0443 14.9521 22.3457 14.5604C22.6472 14.1686 22.8449 13.707 22.9204 13.2185C22.996 12.73 22.9471 12.2303 22.7781 11.7656C22.6092 11.3011 22.3256 10.8867 21.9539 10.5608C21.5821 10.235 21.1341 10.0083 20.6514 9.90171C20.1687 9.79515 19.6668 9.81211 19.1924 9.95107C18.718 10.0901 18.2864 10.3466 17.9376 10.6968H17.9352Z" fill="#F4F7F5"/>
<path d="M12.0336 14.9088L12.0184 14.8944C12.4466 14.9376 12.8791 14.885 13.2846 14.7405C13.69 14.596 14.0584 14.3633 14.3628 14.0591C14.6672 13.7548 14.9004 13.3867 15.0451 12.9813C15.1899 12.576 15.2428 12.1436 15.2 11.7152L15.2152 11.7296C15.1726 11.2257 15.2406 10.7187 15.4142 10.2437C15.5879 9.76885 15.8632 9.33757 16.2207 8.97997C16.5783 8.62245 17.0096 8.34717 17.4844 8.17357C17.9594 7.99985 18.4664 7.93191 18.9704 7.97445L18.9552 7.96005C19.558 8.01669 20.1635 7.88593 20.6892 7.58573C21.2151 7.28552 21.6354 6.83042 21.893 6.28253C22.1506 5.73464 22.2329 5.12061 22.1288 4.52421C22.0246 3.9278 21.739 3.37805 21.3108 2.94994C20.8828 2.52184 20.333 2.23621 19.7366 2.13203C19.1402 2.02785 18.5262 2.11017 17.9783 2.36779C17.4304 2.6254 16.9753 3.04576 16.6751 3.57153C16.3748 4.09729 16.2441 4.70286 16.3008 5.30565L16.2864 5.29045C16.329 5.79436 16.2612 6.30151 16.0876 6.77649C15.914 7.25146 15.6387 7.68281 15.2812 8.04045C14.9236 8.39797 14.4922 8.67325 14.0172 8.84685C13.5422 9.02045 13.0351 9.08829 12.5312 9.04565L12.5456 9.06085C12.1173 9.01773 11.6848 9.07029 11.2793 9.21477C10.8739 9.35917 10.5056 9.59197 10.2011 9.89621C9.89659 10.2004 9.66355 10.5686 9.51875 10.974C9.37403 11.3793 9.32115 11.8117 9.36395 12.24L9.34955 12.2256C9.39195 12.7295 9.32387 13.2365 9.15019 13.7114C8.97643 14.1862 8.70123 14.6175 8.34371 14.975C7.98616 15.3325 7.55493 15.6077 7.08008 15.7815C6.60523 15.9552 6.0982 16.0232 5.59435 15.9808L5.60875 15.9952C5.00597 15.9386 4.40039 16.0693 3.87462 16.3696C3.34886 16.6698 2.9285 17.1248 2.6709 17.6728C2.41328 18.2207 2.33094 18.8347 2.43513 19.4311C2.53931 20.0275 2.82494 20.5772 3.25305 21.0053C3.68116 21.4335 4.2309 21.7191 4.82731 21.8232C5.42372 21.9274 6.03774 21.8451 6.58564 21.5875C7.13353 21.3299 7.58862 20.9096 7.88883 20.3838C8.18907 19.858 8.31979 19.2524 8.26315 18.6496L8.27835 18.664C8.23579 18.1601 8.30379 17.6531 8.47747 17.1781C8.65107 16.7032 8.92635 16.272 9.28387 15.9144C9.64147 15.5568 10.0728 15.2816 10.5476 15.108C11.0226 14.9343 11.5296 14.8663 12.0336 14.9088Z" fill="#F4F7F5"/>
<path d="M6.67205 13.3032C6.97526 12.9983 7.20741 12.6301 7.35192 12.2251C7.49643 11.82 7.54974 11.388 7.50805 10.96L7.52324 10.9745C7.48068 10.4705 7.54865 9.96317 7.72241 9.48813C7.89618 9.01309 8.17157 8.58173 8.52933 8.22413C8.88709 7.86655 9.31853 7.59135 9.79365 7.41779C10.2688 7.24423 10.776 7.17647 11.28 7.21925L11.2648 7.20485C11.8674 7.26131 12.4728 7.13051 12.9983 6.83032C13.5238 6.53014 13.9439 6.07515 14.2014 5.52743C14.4588 4.97971 14.5411 4.36591 14.4369 3.76972C14.3328 3.17354 14.0472 2.624 13.6192 2.19605C13.1913 1.7681 12.6417 1.48256 12.0456 1.37839C11.4494 1.2742 10.8356 1.35646 10.2879 1.61391C9.74013 1.87137 9.28517 2.29151 8.98501 2.81703C8.68477 3.34255 8.55397 3.94787 8.61045 4.55045L8.59605 4.53605C8.63861 5.03993 8.57061 5.54703 8.39693 6.02194C8.22325 6.49685 7.94806 6.92814 7.5905 7.28571C7.23293 7.64327 6.80164 7.9185 6.32673 8.09213C5.85182 8.26581 5.34473 8.33381 4.84085 8.29125L4.85525 8.30565C4.3629 8.26149 3.86737 8.34237 3.41459 8.54069C2.96181 8.73901 2.56641 9.04845 2.26504 9.44029C1.96367 9.83205 1.76609 10.2936 1.69058 10.7821C1.61509 11.2707 1.66412 11.7704 1.83314 12.2348C2.00215 12.6994 2.2857 13.1137 2.65748 13.4395C3.02926 13.7653 3.47726 13.992 3.95997 14.0985C4.44266 14.205 4.94445 14.188 5.41882 14.049C5.89319 13.91 6.32479 13.6535 6.67364 13.3032H6.67205Z" fill="#F4F7F5"/>
<path d="M31.4536 5.32397H33.8296V16.8864H31.4536V5.32397Z" fill="#F4F7F5"/>
<path d="M35.1752 12.9272C35.1719 12.0963 35.4152 11.283 35.8744 10.5905C36.3336 9.89804 36.988 9.3574 37.7548 9.03716C38.5215 8.71684 39.366 8.63132 40.1813 8.7914C40.9967 8.95148 41.7462 9.34988 42.3349 9.93628C42.9236 10.5226 43.3251 11.2705 43.4884 12.0852C43.6518 12.9 43.5696 13.7448 43.2524 14.5128C42.9352 15.2808 42.3972 15.9374 41.7066 16.3993C41.0159 16.8613 40.2037 17.108 39.3728 17.108C38.8212 17.1143 38.274 17.0105 37.7629 16.8028C37.2519 16.5952 36.7874 16.2877 36.3966 15.8985C36.0057 15.5092 35.6964 15.046 35.4868 14.5358C35.277 14.0256 35.1711 13.4788 35.1752 12.9272ZM41.1944 12.9272C41.1844 12.569 41.0692 12.2217 40.863 11.9287C40.6568 11.6357 40.3688 11.41 40.035 11.2798C39.7012 11.1496 39.3364 11.1206 38.9863 11.1966C38.6361 11.2726 38.3161 11.45 38.0663 11.7069C37.8165 11.9637 37.6479 12.2885 37.5817 12.6407C37.5155 12.9928 37.5544 13.3566 37.6939 13.6867C37.8333 14.0168 38.0669 14.2984 38.3655 14.4964C38.6641 14.6944 39.0145 14.8 39.3728 14.8C39.6181 14.8065 39.8622 14.7621 40.0896 14.6696C40.317 14.5772 40.5228 14.4386 40.6939 14.2627C40.865 14.0867 40.9979 13.8772 41.084 13.6473C41.1701 13.4175 41.2077 13.1723 41.1944 12.9272Z" fill="#F4F7F5"/>
<path d="M53.04 8.96715V16.4871C53.04 19.1479 50.9648 20.2727 48.8584 20.2727C48.1168 20.3283 47.3742 20.1784 46.712 19.8398C46.0499 19.5011 45.4938 18.9866 45.1048 18.3527L47.132 17.1807C47.2955 17.5111 47.5561 17.7837 47.8787 17.962C48.2014 18.1403 48.5709 18.2158 48.9376 18.1783C49.172 18.2108 49.4107 18.1902 49.6361 18.1179C49.8614 18.0457 50.0676 17.9237 50.2394 17.7611C50.4113 17.5983 50.5443 17.3991 50.6288 17.178C50.7132 16.957 50.7468 16.7198 50.7272 16.4839V15.7599C50.449 16.1003 50.0949 16.3708 49.6932 16.5496C49.2915 16.7284 48.8536 16.8106 48.4144 16.7895C47.3694 16.7566 46.3783 16.3183 45.6508 15.5675C44.9233 14.8167 44.5165 13.8122 44.5165 12.7667C44.5165 11.7213 44.9233 10.7168 45.6508 9.96603C46.3783 9.21515 47.3694 8.77691 48.4144 8.74395C48.8536 8.72291 49.2915 8.80507 49.6932 8.98387C50.0949 9.16267 50.449 9.43315 50.7272 9.77355V8.96555L53.04 8.96715ZM50.728 12.7679C50.744 12.3851 50.645 12.0061 50.4438 11.6799C50.2426 11.3537 49.9483 11.0952 49.599 10.9377C49.2496 10.7801 48.8611 10.7307 48.4834 10.7959C48.1058 10.861 47.7562 11.0376 47.4798 11.3031C47.2034 11.5686 47.0127 11.9107 46.9323 12.2854C46.852 12.6601 46.8856 13.0503 47.029 13.4058C47.1722 13.7612 47.4186 14.0657 47.7364 14.2799C48.0542 14.4942 48.4288 14.6084 48.812 14.6079C49.0617 14.6254 49.3122 14.5903 49.5474 14.5051C49.7827 14.4198 49.9975 14.2861 50.178 14.1128C50.3585 13.9395 50.5007 13.7303 50.5954 13.4986C50.6902 13.267 50.7354 13.0181 50.728 12.7679Z" fill="#F4F7F5"/>
<path d="M54.3856 12.9272C54.3823 12.0963 54.6256 11.283 55.0849 10.5905C55.5441 9.89804 56.1985 9.3574 56.9652 9.03716C57.7319 8.71684 58.5764 8.63132 59.3918 8.7914C60.2071 8.95148 60.9567 9.34988 61.5454 9.93628C62.1341 10.5226 62.5355 11.2705 62.6989 12.0852C62.8622 12.9 62.7801 13.7448 62.4629 14.5128C62.1457 15.2808 61.6077 15.9374 60.9171 16.3993C60.2263 16.8613 59.4142 17.108 58.5832 17.108C58.0317 17.1143 57.4843 17.0105 56.9734 16.8028C56.4623 16.5952 55.9978 16.2877 55.607 15.8985C55.2162 15.5092 54.9069 15.046 54.6972 14.5358C54.4874 14.0256 54.3815 13.4788 54.3856 12.9272ZM60.4048 12.9272C60.3949 12.569 60.2796 12.2217 60.0734 11.9287C59.8672 11.6357 59.5792 11.41 59.2455 11.2798C58.9116 11.1496 58.5468 11.1206 58.1967 11.1966C57.8466 11.2726 57.5266 11.45 57.2767 11.7069C57.027 11.9637 56.8583 12.2885 56.7921 12.6407C56.7258 12.9928 56.7649 13.3566 56.9043 13.6867C57.0438 14.0168 57.2774 14.2984 57.5759 14.4964C57.8746 14.6944 58.2249 14.8 58.5832 14.8C58.8286 14.8065 59.0726 14.7621 59.3 14.6696C59.5275 14.5772 59.7332 14.4386 59.9043 14.2627C60.0755 14.0867 60.2083 13.8772 60.2944 13.6473C60.3806 13.4175 60.4182 13.1723 60.4048 12.9272Z" fill="#F4F7F5"/>
<path d="M63.8888 6.84479C63.8888 6.56283 63.9724 6.28721 64.129 6.05278C64.2857 5.81834 64.5084 5.63561 64.7689 5.52771C65.0294 5.41981 65.316 5.39158 65.5926 5.44658C65.869 5.50159 66.1231 5.63737 66.3225 5.83674C66.5218 6.03611 66.6576 6.29013 66.7126 6.56667C66.7676 6.84321 66.7394 7.12985 66.6315 7.39034C66.5236 7.65084 66.3409 7.87349 66.1064 8.03015C65.872 8.18679 65.5964 8.27039 65.3144 8.27039C64.9375 8.26663 64.577 8.11527 64.3105 7.84869C64.044 7.58215 63.8926 7.22172 63.8888 6.84479ZM64.1288 8.96719H66.5056V16.8872H64.1256L64.1288 8.96719Z" fill="#F4F7F5"/>
<path d="M76.7648 12.9272C76.7923 13.4507 76.716 13.9743 76.5403 14.4682C76.3647 14.962 76.0932 15.4163 75.7414 15.8048C75.3896 16.1933 74.9644 16.5085 74.4904 16.7322C74.0163 16.9558 73.5028 17.0835 72.9792 17.108C72.5389 17.132 72.0988 17.0578 71.6907 16.8907C71.2827 16.7235 70.917 16.4676 70.62 16.1416V20.0544H68.244V8.96722H70.62V9.71122C70.9171 9.38546 71.2829 9.12978 71.6909 8.96282C72.099 8.79578 72.539 8.72162 72.9792 8.74562C73.5029 8.77002 74.0166 8.8977 74.4907 9.12138C74.9649 9.34506 75.3901 9.66026 75.7419 10.0489C76.0938 10.4375 76.3653 10.8919 76.5408 11.3859C76.7163 11.8799 76.7925 12.4037 76.7648 12.9272ZM74.3888 12.9272C74.3795 12.5566 74.2611 12.1969 74.0484 11.8931C73.8357 11.5895 73.5382 11.3552 73.1931 11.2199C72.8479 11.0844 72.4704 11.0538 72.1079 11.1319C71.7455 11.2099 71.4141 11.3931 71.1552 11.6585C70.8963 11.924 70.7215 12.2599 70.6527 12.6243C70.5838 12.9886 70.6239 13.3651 70.7679 13.7067C70.9119 14.0484 71.1536 14.3399 71.4626 14.545C71.7715 14.7499 72.134 14.8593 72.5048 14.8592C72.7594 14.8706 73.0135 14.8279 73.2504 14.7342C73.4873 14.6405 73.7018 14.4977 73.8796 14.3153C74.0575 14.1328 74.1948 13.9149 74.2826 13.6757C74.3703 13.4365 74.4066 13.1814 74.3888 12.9272Z" fill="#F4F7F5"/>
<path d="M84.0968 14.5104C84.0968 16.332 82.5136 17.108 80.8032 17.108C80.112 17.1706 79.4181 17.0245 78.811 16.6884C78.2039 16.3524 77.7116 15.842 77.3976 15.2232L79.456 14.0512C79.5393 14.3372 79.7181 14.5861 79.9627 14.7561C80.2072 14.9262 80.5032 15.0072 80.8 14.9856C81.3696 14.9856 81.6552 14.8112 81.6552 14.4952C81.6552 13.6232 77.7584 14.0832 77.7584 11.3432C77.7584 9.61603 79.216 8.74563 80.8632 8.74563C81.4824 8.72603 82.0952 8.87291 82.6384 9.17091C83.1816 9.46899 83.6352 9.90723 83.9512 10.44L81.924 11.5328C81.8352 11.3254 81.6872 11.1487 81.4984 11.0248C81.3096 10.9008 81.0888 10.8352 80.8632 10.836C80.4512 10.836 80.1976 10.996 80.1976 11.2792C80.2008 12.1824 84.0968 11.58 84.0968 14.5104Z" fill="#F4F7F5"/>
<path d="M92.776 8.96716V16.8872H90.4V16.1424C90.1256 16.471 89.7776 16.73 89.384 16.898C88.9904 17.066 88.5632 17.1382 88.136 17.1088C86.536 17.1088 85.176 15.9688 85.176 13.8288V8.96716H87.552V13.4808C87.532 13.6694 87.5536 13.8601 87.6152 14.0396C87.676 14.2191 87.776 14.3831 87.9072 14.5201C88.0384 14.6572 88.1976 14.764 88.3744 14.8332C88.5504 14.9024 88.74 14.9323 88.9296 14.9208C89.8008 14.9208 90.4024 14.4144 90.4024 13.2896V8.96956L92.776 8.96716Z" fill="#F4F7F5"/>
<path d="M106.4 12.024V16.8864H104.024V12.2296C104.024 11.4376 103.644 10.9312 102.884 10.9312C102.092 10.9312 101.648 11.4856 101.648 12.42V16.8864H99.2728V12.2296C99.2728 11.4376 98.8928 10.9312 98.132 10.9312C97.34 10.9312 96.8968 11.4856 96.8968 12.42V16.8864H94.5208V8.96641H96.8968V9.69441C97.1432 9.37145 97.4663 9.11529 97.8367 8.94945C98.2079 8.78353 98.6144 8.71321 99.0192 8.74481C99.4256 8.72489 99.8303 8.81073 100.194 8.99385C100.558 9.17689 100.867 9.45113 101.094 9.78961C101.357 9.43545 101.706 9.15385 102.107 8.97113C102.509 8.78841 102.95 8.71057 103.39 8.74481C105.209 8.74561 106.4 10.044 106.4 12.024Z" fill="#F4F7F5"/>
<path d="M108.41 8.91837C109.383 8.91837 110.173 8.12893 110.173 7.15517C110.173 6.18138 109.383 5.39197 108.41 5.39197C107.436 5.39197 106.646 6.18138 106.646 7.15517C106.646 8.12893 107.436 8.91837 108.41 8.91837Z" fill="#F4F7F5"/>
</g>
</svg>
