<svg width="62" height="24" viewBox="0 0 62 24" fill="none" xmlns="http://www.w3.org/2000/svg">
<g opacity="0.64" clip-path="url(#clip0_2024_360)">
<path d="M14.7168 0C12.2956 0 9.97349 0.96804 8.26142 2.69117L2.67392 8.31472C0.961835 10.0378 0 12.3749 0 14.8118C0 19.8863 4.08734 24 9.12934 24C11.5506 24 13.8727 23.0319 15.5847 21.3088L19.4496 17.419C19.4496 17.4189 19.4497 17.419 19.4496 17.419L30.7107 6.08528C31.5284 5.26233 32.6374 4.8 33.7937 4.8C35.7297 4.8 37.3711 6.06993 37.9401 7.82726L41.4941 4.25037C39.8728 1.69467 37.0299 0 33.7937 0C31.3725 0 29.0504 0.96804 27.3383 2.69117L12.2124 17.9147C11.3947 18.7377 10.2857 19.2 9.12934 19.2C6.72131 19.2 4.76923 17.2354 4.76923 14.8118C4.76923 13.6479 5.22859 12.5318 6.04627 11.7088L11.6337 6.08528C12.4514 5.26233 13.5604 4.8 14.7168 4.8C16.6529 4.8 18.2941 6.06998 18.8632 7.82737L22.4172 4.25046C20.7959 1.69472 17.9531 0 14.7168 0Z" fill="#F4F7F5"/>
<path d="M31.2894 17.9147C30.4717 18.7377 29.3627 19.2 28.2063 19.2C26.2705 19.2 24.6294 17.9304 24.0602 16.1734L20.5063 19.7502C22.1277 22.3055 24.9704 24 28.2063 24C30.6275 24 32.9496 23.0319 34.6617 21.3088L49.7876 6.08528C50.6053 5.26233 51.7143 4.8 52.8707 4.8C55.2787 4.8 57.2308 6.76467 57.2308 9.18824C57.2308 10.3521 56.7714 11.4682 55.9538 12.2912L50.3663 17.9147C49.5486 18.7377 48.4396 19.2 47.2832 19.2C45.3473 19.2 43.7061 17.9302 43.1369 16.173L39.5831 19.7498C41.2044 22.3054 44.0471 24 47.2832 24C49.7045 24 52.0265 23.0319 53.7386 21.3088L59.3261 15.6853C61.0382 13.9622 62 11.6251 62 9.18824C62 4.11371 57.9127 0 52.8707 0C50.4494 0 48.1274 0.96804 46.4153 2.69117L31.2894 17.9147Z" fill="#F4F7F5"/>
</g>
<defs>
<clipPath id="clip0_2024_360">
<rect width="62" height="24" fill="white"/>
</clipPath>
</defs>
</svg>
