<svg width="125" height="24" viewBox="0 0 125 24" fill="none" xmlns="http://www.w3.org/2000/svg">
<g opacity="0.64" clip-path="url(#clip0_2024_346)">
<path d="M57.9276 2.40095C57.7344 3.7765 58.6247 4.8019 60.0119 4.8019C61.3995 4.8019 62.5777 3.7765 62.7709 2.40095C62.9641 1.02541 62.0736 0 60.686 0C59.2988 0 58.1206 1.02541 57.9276 2.40095Z" fill="#F4F7F5"/>
<path d="M57.9622 5.92737L56.7723 14.4044L60.5765 14.2584L61.7458 5.92737H57.9622Z" fill="#F4F7F5"/>
<path fill-rule="evenodd" clip-rule="evenodd" d="M47.9704 18.6076C50.9714 18.6076 53.5221 17.0076 54.7975 14.5841L56.736 14.6635L56.2281 18.2823H60.012L60.4982 14.8175L62.5042 14.8996L61.2883 23.5595H65.0724L66.0024 16.9319C66.6298 18.0323 67.8104 18.6076 69.2991 18.6076C71.311 18.6076 73.6735 17.5674 75.0855 15.4147L76.5347 15.4741C76.7817 17.3443 78.5221 18.6076 81.2835 18.6076C84.4869 18.6076 86.8445 16.9069 87.2028 14.3559C87.6136 11.4298 84.9306 10.9546 83.1746 10.7045L83.0215 10.681C81.9599 10.519 81.1495 10.3953 81.25 9.67901C81.3206 9.17885 81.7656 8.70365 82.6986 8.70365C83.4558 8.70365 83.9145 9.02879 83.9348 9.60401H87.6172C87.8541 7.37813 86.1866 5.60243 83.0837 5.60243C79.9809 5.60243 77.7422 7.35311 77.3912 9.85409C76.9737 12.8303 79.7392 13.2554 81.4193 13.5056L81.512 13.5197L81.6412 13.5392L81.6424 13.5394C82.6699 13.6939 83.445 13.8105 83.3367 14.581C83.2632 15.1062 82.8284 15.5063 81.6681 15.5063C80.634 15.5063 80.2004 15.1813 80.2662 14.531L53.4874 14.5304L54.8522 14.4781C55.2197 13.7518 55.4738 12.9541 55.593 12.105C56.1196 8.35349 53.731 5.60243 49.7959 5.60243C49.7349 5.60243 49.6742 5.60309 49.6135 5.6044L49.6256 5.59631L37.697 5.59633C37.5261 5.59517 37.3638 5.59517 37.2118 5.59633H37.697C40.7602 5.617 46.5979 6.00599 45.8469 6.63971C43.8856 7.77065 42.5055 9.73883 42.1733 12.105C41.6467 15.8565 44.0353 18.6076 47.9704 18.6076ZM48.4619 15.1062C50.1772 15.1062 51.5095 13.8807 51.7588 12.105C52.0081 10.3293 51.0197 9.10379 49.3044 9.10379C47.5891 9.10379 46.2568 10.3293 46.0075 12.105C45.7583 13.8807 46.7466 15.1062 48.4619 15.1062Z" fill="#F4F7F5"/>
<path d="M72.4312 12.105C72.3385 12.7688 72.0939 13.3556 71.7345 13.8303L75.9199 13.6697C76.064 13.2286 76.1741 12.7572 76.2446 12.255C76.8027 8.27848 74.4037 5.60242 70.4432 5.60242C66.6346 5.60242 63.4617 8.07838 62.8786 12.23L62.6053 14.1806L66.9899 14.0124C66.6908 13.5092 66.5748 12.8564 66.68 12.105C66.9294 10.3293 68.262 9.10378 69.9773 9.10378C71.6926 9.10378 72.6806 10.3293 72.4312 12.105Z" fill="#F4F7F5"/>
<path d="M101.947 16.3836L102.657 11.3297C103.215 7.3531 105.782 5.60242 108.809 5.60242C110.574 5.60242 111.968 6.27766 112.718 7.57822C113.834 6.27766 115.392 5.60242 117.183 5.60242C120.211 5.60242 122.285 7.3531 121.727 11.3297L120.751 18.2825H116.967L117.943 11.3297C118.175 9.679 117.449 9.10378 116.313 9.10378C115.203 9.10378 114.316 9.679 114.084 11.3297L113.108 18.2825H109.324L110.3 11.3297C110.532 9.679 109.806 9.10378 108.696 9.10378C107.56 9.10378 106.672 9.679 106.441 11.3297L105.465 18.2825H103.197L103.198 18.2839H97.8965C100.096 18.0607 101.786 17.4579 101.944 16.3783L101.947 16.3836Z" fill="#F4F7F5"/>
<path d="M93.875 18.6074C90.192 18.6074 88.0149 16.5066 88.601 12.3299L89.2637 7.61139C89.3696 6.39255 88.4109 6.24027 86.296 5.93487H89.4988L89.5 5.92737H93.2841L92.3851 12.3299C92.1112 14.2807 92.9539 15.106 94.3666 15.106C95.7793 15.106 96.8534 14.2807 97.1274 12.3299L98.0263 5.92737H101.81L100.911 12.3299C100.328 16.4815 97.558 18.6074 93.875 18.6074Z" fill="#F4F7F5"/>
<path d="M29.4362 16.8201C29.1688 16.5272 28.9379 16.2031 28.7466 15.8515L26.0451 15.7042C24.6478 17.4884 22.4528 18.6075 19.9429 18.6075C16.0078 18.6075 13.6192 15.8565 14.1458 12.105C14.6724 8.35348 17.8333 5.60242 21.7684 5.60242C25.7035 5.60242 28.0921 8.35348 27.5655 12.105C27.4451 12.9625 27.1871 13.7678 26.8137 14.4998L21.9469 14.7485C22.8945 14.2612 23.5622 13.3097 23.7313 12.105C23.9806 10.3293 22.9922 9.10378 21.2769 9.10378C19.5617 9.10378 18.2292 10.3293 17.98 12.105C17.7934 13.4342 18.3004 14.4552 19.2865 14.8845L15.0163 15.1028H34.5413V15.105C36.2115 15.0614 37.5003 13.8484 37.745 12.105C37.9943 10.3293 37.0059 9.10378 35.2906 9.10378C33.5754 9.10378 32.243 10.3293 31.9937 12.105C31.8737 12.9602 32.0407 13.6878 32.4378 14.2124L28.223 14.4278C28.0692 13.715 28.0431 12.9345 28.1595 12.105C28.6861 8.35348 31.847 5.60242 35.7821 5.60242C39.7172 5.60242 42.1058 8.35348 41.5792 12.105C41.0705 15.7287 38.1039 18.4191 34.3558 18.5981C35.2385 19.0955 36.5206 19.4978 37.463 19.7934C37.7775 19.8921 38.0541 19.9789 38.2654 20.0534C39.1212 20.2652 39.6681 21.0558 39.5358 21.9989C39.3806 23.1041 38.3512 24 37.2365 24H31.1813C29.202 24 27.7537 22.5877 27.6707 20.724L20.2022 19.9986H27.7062L27.7063 19.9977H34.1635C32.687 19.4316 31.1269 18.299 30.1239 17.4444C29.8738 17.2565 29.6444 17.0481 29.437 16.821L29.4362 16.8201Z" fill="#F4F7F5"/>
<path d="M0 1.92582L3.09079 2.4183L0.863971 18.2823H12.7449L13.2715 14.5308H5.47701L7.24635 1.92578L0 1.92582Z" fill="#F4F7F5"/>
<path d="M125 4.72618C125 5.52338 124.355 6.16966 123.558 6.16966C122.762 6.16966 122.117 5.52338 122.117 4.72618C122.117 3.92897 122.762 3.28271 123.558 3.28271C124.355 3.28271 125 3.92897 125 4.72618Z" fill="#F4F7F5"/>
</g>
<defs>
<clipPath id="clip0_2024_346">
<rect width="125" height="24" fill="white"/>
</clipPath>
</defs>
</svg>
